<?xml version="1.0" encoding="UTF-8"?>
<svg xmlns="http://www.w3.org/2000/svg" viewBox="0 0 141.73 141.73">
  <defs>
    <style>
      .cls-1 {
        isolation: isolate;
      }

      .cls-2 {
        fill: #f4e800;
        fill-rule: evenodd;
        stroke: #aaa;
        stroke-miterlimit: 10;
        stroke-width: .5px;
      }
    </style>
  </defs>
  <g id="Node-2" data-name="Node" class="cls-1">
    <path class="cls-2" d="M120.33,64.28l4.12,3.89-22.97,7.35c-.61-.8-1.58-1.31-2.66-1.31-.44,0-.87.09-1.26.25l-18.23-24.04h1.71l-10.68-18.5-10.67,18.5h2.08l-18.23,24.04c-.39-.16-.81-.25-1.26-.25-1.09,0-2.05.51-2.67,1.31l-22.87-7.32,4.68-4.42L.95,57.66l4.93,20.78,5.78-5.45,56.04,55.39s.05.09.07.06c0,.03.05,0,.08,0h4.98s.07,0,.08-.02c.03.02.02-.01.04-.03l56.32-55.67,6.59,6.22,4.93-20.78-20.46,6.12ZM64.11,50.41h3.64l.02,44.06-22.21-16.15c.06-.24.09-.49.09-.74,0-.74-.24-1.43-.65-1.98l19.11-25.19ZM15.74,69.83l23.18,7.42c-.01.11-.02.22-.02.33,0,1.48.95,2.73,2.28,3.18l3.43,17.61-28.87-28.54ZM46.98,100.71l-3.88-19.87c.6-.14,1.13-.45,1.55-.87l23.12,16.81.02,24.5-20.81-20.57ZM72.86,50.41h4.12l19.11,25.19c-.41.55-.65,1.24-.65,1.98,0,.26.03.51.09.75l-22.65,16.46-.02-44.38ZM72.89,121.26v-24.16s23.55-17.13,23.55-17.13c.42.42.95.72,1.55.87l-3.78,19.35-21.32,21.07ZM96.58,97.85l3.33-17.09c1.33-.45,2.28-1.7,2.28-3.18,0-.11-.01-.22-.02-.33l22.56-7.22-28.15,27.82Z"/>
  </g>
</svg>